<svg width="25" height="24" viewBox="0 0 25 24" fill="none" xmlns="http://www.w3.org/2000/svg">
<path d="M10.2032 3.62095C10.994 1.49145 14.006 1.49145 14.7968 3.62095C15.3738 5.17463 16.974 6.09851 18.608 5.82136C20.8477 5.44149 22.3537 8.04996 20.9049 9.79959C19.8479 11.0761 19.8479 12.9239 20.9049 14.2004C22.3537 15.95 20.8477 18.5585 18.608 18.1786C16.974 17.9015 15.3738 18.8254 14.7968 20.379C14.006 22.5085 10.994 22.5085 10.2032 20.379C9.62618 18.8254 8.02596 17.9015 6.39195 18.1786C4.15233 18.5585 2.64633 15.95 4.09512 14.2004C5.15214 12.9239 5.15214 11.0761 4.09512 9.79959C2.64633 8.04996 4.15233 5.44149 6.39195 5.82136C8.02596 6.09851 9.62618 5.17463 10.2032 3.62095Z" stroke="#323B60"/>
<g clip-path="url(#clip0_503_14)">
<path d="M11.4699 11.0777C11.2815 11.2036 11.06 11.2708 10.8333 11.2708C10.5294 11.2708 10.238 11.1501 10.0231 10.9352C9.80822 10.7203 9.6875 10.4289 9.6875 10.125C9.6875 9.89834 9.7547 9.6768 9.88061 9.48837C10.0065 9.29994 10.1855 9.15307 10.3948 9.06635C10.6042 8.97962 10.8346 8.95693 11.0569 9.00114C11.2791 9.04536 11.4833 9.15449 11.6436 9.31473C11.8038 9.47498 11.9129 9.67915 11.9571 9.90142C12.0014 10.1237 11.9787 10.3541 11.8919 10.5635C11.8052 10.7728 11.6584 10.9518 11.4699 11.0777ZM11.3542 9.34546C11.2 9.24244 11.0188 9.18746 10.8333 9.18746C10.5847 9.18746 10.3462 9.28623 10.1704 9.46205C9.99461 9.63786 9.89583 9.87632 9.89583 10.125C9.89583 10.3104 9.95082 10.4916 10.0538 10.6458C10.1568 10.8 10.3033 10.9201 10.4746 10.9911C10.6459 11.0621 10.8344 11.0806 11.0162 11.0444C11.1981 11.0083 11.3651 10.919 11.4962 10.7879C11.6274 10.6568 11.7166 10.4897 11.7528 10.3079C11.789 10.126 11.7704 9.9375 11.6995 9.76619C11.6285 9.59489 11.5084 9.44847 11.3542 9.34546Z" fill="#323B60" stroke="#323B60" stroke-width="0.625"/>
<path d="M14.1666 12.8334C13.8782 12.8334 13.5963 12.9189 13.3564 13.0791C13.1166 13.2394 12.9297 13.4672 12.8193 13.7336C12.7089 14.0001 12.6801 14.2933 12.7363 14.5762C12.7926 14.8591 12.9315 15.119 13.1354 15.3229C13.3394 15.5269 13.5993 15.6657 13.8821 15.722C14.165 15.7783 14.4583 15.7494 14.7247 15.639C14.9912 15.5287 15.219 15.3417 15.3792 15.1019C15.5395 14.8621 15.625 14.5801 15.625 14.2917C15.625 13.9049 15.4713 13.534 15.1978 13.2605C14.9244 12.987 14.5534 12.8334 14.1666 12.8334ZM14.1666 14.9167C14.043 14.9167 13.9222 14.8801 13.8194 14.8114C13.7166 14.7427 13.6365 14.6451 13.5892 14.5309C13.5419 14.4167 13.5295 14.291 13.5537 14.1698C13.5778 14.0485 13.6373 13.9372 13.7247 13.8498C13.8121 13.7624 13.9235 13.7028 14.0447 13.6787C14.166 13.6546 14.2916 13.667 14.4058 13.7143C14.52 13.7616 14.6176 13.8417 14.6863 13.9445C14.755 14.0473 14.7916 14.1681 14.7916 14.2917C14.7916 14.4575 14.7258 14.6164 14.6086 14.7336C14.4914 14.8509 14.3324 14.9167 14.1666 14.9167Z" fill="#323B60"/>
<path d="M15.725 8.77503C15.6906 8.74051 15.6497 8.71313 15.6046 8.69444C15.5596 8.67576 15.5113 8.66614 15.4625 8.66614C15.4138 8.66614 15.3655 8.67576 15.3204 8.69444C15.2754 8.71313 15.2345 8.74051 15.2 8.77503L9.27502 14.7C9.20627 14.7702 9.16743 14.8643 9.16669 14.9625C9.16658 15.036 9.18826 15.1078 9.229 15.1689C9.26974 15.2299 9.3277 15.2776 9.39553 15.3057C9.46336 15.3338 9.53801 15.3411 9.61002 15.3268C9.68203 15.3124 9.74816 15.277 9.80002 15.225L15.725 9.30003C15.7595 9.26559 15.7869 9.22467 15.8056 9.17963C15.8243 9.13459 15.8339 9.0863 15.8339 9.03753C15.8339 8.98877 15.8243 8.94048 15.8056 8.89544C15.7869 8.85039 15.7595 8.80948 15.725 8.77503Z" fill="#323B60"/>
</g>
<defs>
<clipPath id="clip0_503_14">
<rect width="10" height="10" fill="white" transform="translate(7.5 7)"/>
</clipPath>
</defs>
</svg>
