<svg width="33" height="32" viewBox="0 0 33 32" fill="none" xmlns="http://www.w3.org/2000/svg">
<path d="M14.2032 7.62095C14.994 5.49145 18.006 5.49145 18.7968 7.62095C19.3738 9.17463 20.974 10.0985 22.608 9.82136C24.8477 9.44149 26.3537 12.05 24.9049 13.7996C23.8479 15.0761 23.8479 16.9239 24.9049 18.2004C26.3537 19.95 24.8477 22.5585 22.608 22.1786C20.974 21.9015 19.3738 22.8254 18.7968 24.379C18.006 26.5085 14.994 26.5085 14.2032 24.379C13.6262 22.8254 12.026 21.9015 10.3919 22.1786C8.15233 22.5585 6.64633 19.95 8.09512 18.2004C9.15214 16.9239 9.15214 15.0761 8.09512 13.7996C6.64633 12.05 8.15233 9.44149 10.3919 9.82136C12.026 10.0985 13.6262 9.17463 14.2032 7.62095Z" stroke="#323B60"/>
<g clip-path="url(#clip0_503_15)">
<path d="M15.4699 15.0777C15.2815 15.2036 15.06 15.2708 14.8333 15.2708C14.5294 15.2708 14.238 15.1501 14.0231 14.9352C13.8082 14.7203 13.6875 14.4289 13.6875 14.125C13.6875 13.8983 13.7547 13.6768 13.8806 13.4884C14.0065 13.2999 14.1855 13.1531 14.3948 13.0663C14.6042 12.9796 14.8346 12.9569 15.0569 13.0011C15.2791 13.0454 15.4833 13.1545 15.6436 13.3147C15.8038 13.475 15.9129 13.6791 15.9571 13.9014C16.0014 14.1237 15.9787 14.3541 15.8919 14.5635C15.8052 14.7728 15.6584 14.9518 15.4699 15.0777ZM15.3542 13.3455C15.2 13.2424 15.0188 13.1875 14.8333 13.1875C14.5847 13.1875 14.3462 13.2862 14.1704 13.462C13.9946 13.6379 13.8958 13.8763 13.8958 14.125C13.8958 14.3104 13.9508 14.4916 14.0538 14.6458C14.1568 14.8 14.3033 14.9201 14.4746 14.9911C14.6459 15.0621 14.8344 15.0806 15.0162 15.0444C15.1981 15.0083 15.3651 14.919 15.4962 14.7879C15.6274 14.6568 15.7166 14.4897 15.7528 14.3079C15.789 14.126 15.7704 13.9375 15.6995 13.7662C15.6285 13.5949 15.5084 13.4485 15.3542 13.3455Z" fill="#323B60" stroke="#323B60" stroke-width="0.625"/>
<path d="M18.1666 16.8334C17.8782 16.8334 17.5963 16.9189 17.3564 17.0791C17.1166 17.2394 16.9297 17.4672 16.8193 17.7336C16.7089 18.0001 16.6801 18.2933 16.7363 18.5762C16.7926 18.8591 16.9315 19.119 17.1354 19.3229C17.3394 19.5269 17.5993 19.6657 17.8821 19.722C18.165 19.7783 18.4583 19.7494 18.7247 19.639C18.9912 19.5287 19.219 19.3417 19.3792 19.1019C19.5395 18.8621 19.625 18.5801 19.625 18.2917C19.625 17.9049 19.4713 17.534 19.1978 17.2605C18.9244 16.987 18.5534 16.8334 18.1666 16.8334ZM18.1666 18.9167C18.043 18.9167 17.9222 18.8801 17.8194 18.8114C17.7166 18.7427 17.6365 18.6451 17.5892 18.5309C17.5419 18.4167 17.5295 18.291 17.5537 18.1698C17.5778 18.0485 17.6373 17.9372 17.7247 17.8498C17.8121 17.7624 17.9235 17.7028 18.0447 17.6787C18.166 17.6546 18.2916 17.667 18.4058 17.7143C18.52 17.7616 18.6176 17.8417 18.6863 17.9445C18.755 18.0473 18.7916 18.1681 18.7916 18.2917C18.7916 18.4575 18.7258 18.6164 18.6086 18.7336C18.4914 18.8509 18.3324 18.9167 18.1666 18.9167Z" fill="#323B60"/>
<path d="M19.725 12.775C19.6906 12.7405 19.6497 12.7131 19.6046 12.6944C19.5596 12.6758 19.5113 12.6661 19.4625 12.6661C19.4138 12.6661 19.3655 12.6758 19.3204 12.6944C19.2754 12.7131 19.2345 12.7405 19.2 12.775L13.275 18.7C13.2063 18.7702 13.1674 18.8643 13.1667 18.9625C13.1666 19.036 13.1883 19.1078 13.229 19.1689C13.2697 19.2299 13.3277 19.2776 13.3955 19.3057C13.4634 19.3338 13.538 19.3411 13.61 19.3268C13.682 19.3124 13.7482 19.277 13.8 19.225L19.725 13.3C19.7595 13.2656 19.7869 13.2247 19.8056 13.1796C19.8243 13.1346 19.8339 13.0863 19.8339 13.0375C19.8339 12.9888 19.8243 12.9405 19.8056 12.8954C19.7869 12.8504 19.7595 12.8095 19.725 12.775Z" fill="#323B60"/>
</g>
<defs>
<clipPath id="clip0_503_15">
<rect width="10" height="10" fill="white" transform="translate(11.5 11)"/>
</clipPath>
</defs>
</svg>
