<svg width="11" height="10" viewBox="0 0 11 10" fill="none" xmlns="http://www.w3.org/2000/svg">
<g clip-path="url(#clip0_503_17)">
<path d="M4.46992 4.07769C4.28149 4.20359 4.05996 4.27079 3.83333 4.27079C3.52944 4.27079 3.23799 4.15007 3.02311 3.93519C2.80822 3.7203 2.6875 3.42885 2.6875 3.12496C2.6875 2.89834 2.7547 2.6768 2.88061 2.48837C3.00651 2.29994 3.18547 2.15307 3.39484 2.06635C3.60422 1.97962 3.8346 1.95693 4.05687 2.00114C4.27914 2.04536 4.48331 2.15449 4.64356 2.31473C4.80381 2.47498 4.91294 2.67915 4.95715 2.90142C5.00136 3.12369 4.97867 3.35408 4.89195 3.56345C4.80522 3.77282 4.65836 3.95178 4.46992 4.07769ZM4.35418 2.34546C4.20001 2.24244 4.01875 2.18746 3.83333 2.18746C3.58469 2.18746 3.34624 2.28623 3.17042 2.46205C2.99461 2.63786 2.89583 2.87632 2.89583 3.12496C2.89583 3.31038 2.95082 3.49164 3.05383 3.64581C3.15684 3.79998 3.30326 3.92014 3.47457 3.9911C3.64587 4.06205 3.83437 4.08062 4.01623 4.04445C4.19809 4.00827 4.36513 3.91898 4.49625 3.78787C4.62736 3.65676 4.71665 3.48971 4.75282 3.30786C4.78899 3.126 4.77043 2.9375 4.69947 2.76619C4.62851 2.59489 4.50835 2.44847 4.35418 2.34546Z" fill="#323B60" stroke="#323B60" stroke-width="0.625"/>
<path d="M7.16665 5.83337C6.87822 5.83337 6.59626 5.9189 6.35644 6.07915C6.11662 6.23939 5.9297 6.46715 5.81932 6.73363C5.70894 7.0001 5.68006 7.29332 5.73634 7.57621C5.79261 7.8591 5.9315 8.11895 6.13545 8.3229C6.3394 8.52686 6.59925 8.66575 6.88214 8.72202C7.16503 8.77829 7.45825 8.74941 7.72473 8.63903C7.9912 8.52865 8.21896 8.34174 8.37921 8.10191C8.53945 7.86209 8.62498 7.58014 8.62498 7.29171C8.62498 6.90493 8.47134 6.534 8.19784 6.26051C7.92435 5.98702 7.55342 5.83337 7.16665 5.83337ZM7.16665 7.91671C7.04303 7.91671 6.9222 7.88005 6.81942 7.81138C6.71664 7.7427 6.63653 7.64509 6.58922 7.53088C6.54192 7.41668 6.52954 7.29101 6.55366 7.16978C6.57777 7.04854 6.6373 6.93717 6.72471 6.84977C6.81211 6.76236 6.92348 6.70283 7.04472 6.67872C7.16595 6.6546 7.29162 6.66698 7.40582 6.71428C7.52003 6.76159 7.61764 6.8417 7.68632 6.94448C7.75499 7.04726 7.79165 7.16809 7.79165 7.29171C7.79165 7.45747 7.7258 7.61644 7.60859 7.73365C7.49138 7.85086 7.33241 7.91671 7.16665 7.91671Z" fill="#323B60"/>
<path d="M8.72502 1.77503C8.69058 1.74051 8.64966 1.71313 8.60462 1.69444C8.55957 1.67576 8.51129 1.66614 8.46252 1.66614C8.41376 1.66614 8.36547 1.67576 8.32043 1.69444C8.27538 1.71313 8.23447 1.74051 8.20002 1.77503L2.27502 7.70003C2.20627 7.7702 2.16743 7.8643 2.16669 7.96253C2.16658 8.03596 2.18826 8.10777 2.229 8.16885C2.26974 8.22994 2.3277 8.27756 2.39553 8.30567C2.46336 8.33378 2.53801 8.34113 2.61002 8.32677C2.68203 8.31242 2.74816 8.27701 2.80002 8.22503L8.72502 2.30003C8.75954 2.26559 8.78693 2.22467 8.80561 2.17963C8.8243 2.13459 8.83392 2.0863 8.83392 2.03753C8.83392 1.98877 8.8243 1.94048 8.80561 1.89544C8.78693 1.85039 8.75954 1.80948 8.72502 1.77503Z" fill="#323B60"/>
</g>
<defs>
<clipPath id="clip0_503_17">
<rect width="10" height="10" fill="white" transform="translate(0.5)"/>
</clipPath>
</defs>
</svg>
