<svg width="19" height="22" viewBox="0 0 19 22" fill="none" xmlns="http://www.w3.org/2000/svg">
<path d="M7.20317 2.62095C7.994 0.491451 11.006 0.491451 11.7968 2.62095C12.3738 4.17463 13.974 5.09851 15.608 4.82136C17.8477 4.44149 19.3537 7.04996 17.9049 8.79959C16.8479 10.0761 16.8479 11.9239 17.9049 13.2004C19.3537 14.95 17.8477 17.5585 15.608 17.1786C13.974 16.9015 12.3738 17.8254 11.7968 19.379C11.006 21.5085 7.994 21.5085 7.20317 19.379C6.62618 17.8254 5.02596 16.9015 3.39195 17.1786C1.15233 17.5585 -0.353669 14.95 1.09512 13.2004C2.15214 11.9239 2.15214 10.0761 1.09512 8.79959C-0.353669 7.04996 1.15233 4.44149 3.39195 4.82136C5.02596 5.09851 6.62618 4.17463 7.20317 2.62095Z" stroke="#323B60"/>
</svg>
